<?xml version="1.0" standalone="no"?>
<svg xmlns:xlink="http://www.w3.org/1999/xlink" id="wave" style="transform:rotate(0deg); transition: 0.3s" viewBox="0 0 1440 280" version="1.1" xmlns="http://www.w3.org/2000/svg"><defs><linearGradient id="sw-gradient-0" x1="0" x2="0" y1="1" y2="0"><stop stop-color="rgba(62, 212.344, 243, 1)" offset="0%"/><stop stop-color="rgba(11, 188.877, 255, 1)" offset="100%"/></linearGradient></defs><path style="transform:translate(0, 0px); opacity:1" fill="url(#sw-gradient-0)" d="M0,28L15,46.7C30,65,60,103,90,107.3C120,112,150,84,180,102.7C210,121,240,187,270,196C300,205,330,159,360,149.3C390,140,420,168,450,168C480,168,510,140,540,140C570,140,600,168,630,177.3C660,187,690,177,720,182C750,187,780,205,810,182C840,159,870,93,900,70C930,47,960,65,990,74.7C1020,84,1050,84,1080,102.7C1110,121,1140,159,1170,172.7C1200,187,1230,177,1260,158.7C1290,140,1320,112,1350,121.3C1380,131,1410,177,1440,205.3C1470,233,1500,243,1530,247.3C1560,252,1590,252,1620,247.3C1650,243,1680,233,1710,224C1740,215,1770,205,1800,191.3C1830,177,1860,159,1890,149.3C1920,140,1950,140,1980,144.7C2010,149,2040,159,2070,149.3C2100,140,2130,112,2145,98L2160,84L2160,280L2145,280C2130,280,2100,280,2070,280C2040,280,2010,280,1980,280C1950,280,1920,280,1890,280C1860,280,1830,280,1800,280C1770,280,1740,280,1710,280C1680,280,1650,280,1620,280C1590,280,1560,280,1530,280C1500,280,1470,280,1440,280C1410,280,1380,280,1350,280C1320,280,1290,280,1260,280C1230,280,1200,280,1170,280C1140,280,1110,280,1080,280C1050,280,1020,280,990,280C960,280,930,280,900,280C870,280,840,280,810,280C780,280,750,280,720,280C690,280,660,280,630,280C600,280,570,280,540,280C510,280,480,280,450,280C420,280,390,280,360,280C330,280,300,280,270,280C240,280,210,280,180,280C150,280,120,280,90,280C60,280,30,280,15,280L0,280Z"/></svg>