<?xml version="1.0" standalone="no"?>
<svg xmlns:xlink="http://www.w3.org/1999/xlink" id="wave" style="transform:rotate(180deg); transition: 0.3s" viewBox="0 0 1440 280" version="1.1" xmlns="http://www.w3.org/2000/svg"><defs><linearGradient id="sw-gradient-0" x1="0" x2="0" y1="1" y2="0"><stop stop-color="rgba(243, 106, 62, 1)" offset="0%"/><stop stop-color="rgba(223.445, 95.825, 7.648, 1)" offset="100%"/></linearGradient></defs><path style="transform:translate(0, 0px); opacity:1" fill="url(#sw-gradient-0)" d="M0,28L14.1,46.7C28.2,65,56,103,85,107.3C112.9,112,141,84,169,102.7C197.6,121,226,187,254,196C282.4,205,311,159,339,149.3C367.1,140,395,168,424,168C451.8,168,480,140,508,140C536.5,140,565,168,593,177.3C621.2,187,649,177,678,182C705.9,187,734,205,762,182C790.6,159,819,93,847,70C875.3,47,904,65,932,74.7C960,84,988,84,1016,102.7C1044.7,121,1073,159,1101,172.7C1129.4,187,1158,177,1186,158.7C1214.1,140,1242,112,1271,121.3C1298.8,131,1327,177,1355,205.3C1383.5,233,1412,243,1440,247.3C1468.2,252,1496,252,1525,247.3C1552.9,243,1581,233,1609,224C1637.6,215,1666,205,1694,191.3C1722.4,177,1751,159,1779,149.3C1807.1,140,1835,140,1864,144.7C1891.8,149,1920,159,1948,149.3C1976.5,140,2005,112,2019,98L2032.9,84L2032.9,280L2018.8,280C2004.7,280,1976,280,1948,280C1920,280,1892,280,1864,280C1835.3,280,1807,280,1779,280C1750.6,280,1722,280,1694,280C1665.9,280,1638,280,1609,280C1581.2,280,1553,280,1525,280C1496.5,280,1468,280,1440,280C1411.8,280,1384,280,1355,280C1327.1,280,1299,280,1271,280C1242.4,280,1214,280,1186,280C1157.6,280,1129,280,1101,280C1072.9,280,1045,280,1016,280C988.2,280,960,280,932,280C903.5,280,875,280,847,280C818.8,280,791,280,762,280C734.1,280,706,280,678,280C649.4,280,621,280,593,280C564.7,280,536,280,508,280C480,280,452,280,424,280C395.3,280,367,280,339,280C310.6,280,282,280,254,280C225.9,280,198,280,169,280C141.2,280,113,280,85,280C56.5,280,28,280,14,280L0,280Z"/></svg>